# xmcd
#
# Track frame offsets: 
#        150
#        11727
#        28719
#        34877
#        51897
#        60952
#        73340
#        82337
#        96857
#        111357
#        124457
#        131575
#        141512
#        162482
#        183817
#        196492
#        211282
#        232247
#        252647
#        263685
#        271752
#        281157
#        291472
#
# Disc length: 4031 seconds
#
# Revision: 0
# Processed by: cddbd v1.5.2PL0 Copyright (c) Steve Scherf et al.
# Submitted via: ExactAudioCopy v1.0b3
#
DISCID=780fbd17
DTITLE=Polskie Radio - Muzyka Zrodel - 25 - Polskie pieśni religijne
DYEAR=2006
DGENRE=Folk
TTITLE0=PIEŚNI 0 ZWIASTOWANIU I NARODZENIU PAŃSKIM 1. A przy łącce, pr
TTITLE0=zy zielonej
TTITLE1=PIEŚNI 0 ZWIASTOWANIU I NARODZENIU PAŃSKIM 2. Z tamta strona p
TTITLE1=ola zielanio sia zioła
TTITLE2=PIEŚNI 0 ZWIASTOWANIU I NARODZENIU PAŃSKIM 3. Stała se lipeńka
TTITLE2=, lipeńka zielona, Alleluja
TTITLE3=PIEŚNI 0 ZWIASTOWANIU I NARODZENIU PAŃSKIM 4. Tam w miasteczku
TTITLE3=w Jeruzalom
TTITLE4=PIEŚNI 0 ZWIASTOWANIU I NARODZENIU PAŃSKIM 5. Sła Maryja na Ju
TTITLE4=trznie, Kirie Elejson
TTITLE5=PIEŚNI 0 ZWIASTOWANIU I NARODZENIU PAŃSKIM 6. Gdy Najświętsza 
TTITLE5=Panienka po świecie chodziła
TTITLE6=PIEŚNI 0 MĘCE I ŚMIERCI CHRYSTUSA - PASYJNE 7. Już dobranoc, j
TTITLE6=uż dobranoc, ale nie każdemu
TTITLE7=PIEŚNI 0 MĘCE I ŚMIERCI CHRYSTUSA - PASYJNE 8. Witaj cierniowo
TTITLE7=korono, z głogu morskiego pleciono
TTITLE8=PIEŚNI 0 MĘCE I ŚMIERCI CHRYSTUSA - PASYJNE 9. Zastanów się, o
TTITLE8=człowiecze
TTITLE9=PIEŚNI WIELKANOCNE 10. 0 poranku my śpiewamy, Alleluja
TTITLE10=PIEŚNI MARYJNE 11. Gwiazda Śliczna
TTITLE11=PIEŚNI MARYJNE 12. O wczesnym poranku
TTITLE12=PIEŚNI MARYJNE 13. 0 Cudownym Obrazie
TTITLE13=PIEŚNI O ANIOŁACH I ŚWIĘTYCH 14. Mój stróżu Aniele
TTITLE14=PIEŚNI O ANIOŁACH I ŚWIĘTYCH 15. Przezacna Księżna Dziewico R
TTITLE14=ozalijo pustelnico
TTITLE15=PIEŚNI POGRZEBOWE 16. Aaa... przyjdzie godzina
TTITLE16=PIEŚNI POGRZEBOWE 17. Je drabina do nieba
TTITLE17=PIEŚNI POGRZEBOWE 18. Zaczynam lament więźniów jęczących
TTITLE18=OPOWIEŚCI I LEGENDY 19. Świontego Pietra w kościele
TTITLE19=OPOWIEŚCI I LEGENDY 20. Tadeuse z Wangelisty
TTITLE20=OPOWIEŚCI I LEGENDY 21. Szed Pan Jezus
TTITLE21=OPOWIEŚCI I LEGENDY 22. Onego casu w jednej krainie
TTITLE22=PIEŚNI PRZYGODNE 23. Miałem Jezusa z serca kochanego
EXTD=
EXTT0=
EXTT1=
EXTT2=
EXTT3=
EXTT4=
EXTT5=
EXTT6=
EXTT7=
EXTT8=
EXTT9=
EXTT10=
EXTT11=
EXTT12=
EXTT13=
EXTT14=
EXTT15=
EXTT16=
EXTT17=
EXTT18=
EXTT19=
EXTT20=
EXTT21=
EXTT22=
PLAYORDER=
